:SAMPLES-PER-SECOND 30
:FULLY-SPECIFIED
:DEGREES
532
root  -0.377093 38.6226 14.506 -175.722 36.9609 -177.803
RightUpLeg  -26.1594 23.4696 -3.79117
RightLeg  25.4377 16.3025 8.08937
RightFoot  -2.30313 -0.181178 2.1005
RightToes  -5.8209e-011 0 -3.6325e-017
Spine  34.1059 -4.18976 -28.1497
Spine1  2.8885 -12.8202 -1.75323
HEad  5.20701 42.8889 -4.48511
LeftShoulder1  5.96588 -16.8615 -22.9771
LeftArm  53.4313 -69.347 -120.438
LeftForeArm  78.6991 5.51229 -6.89244
LeftHand  -0.246645 0.021 5.37786
RightShoulder  7.36216 15.2977 33.1901
RightArm  -30.6244 40.9474 50.4974
RightForeArm  25.2741 50.8483 11.8287
RightHand  -0.24729 -0.0210522 -5.37781
LeftUpLeg  -8.00461 33.7818 15.0179
LeftLeg  27.2532 8.29821 4.9675
LeftFoot  -11.0832 0.100965 -15.4027
LeftToes  -7.45818e-011 -3.37383e-011 1.08613e-011
533
root  -0.388823 38.598 14.4464 -175.657 38.1676 -177.538
RightUpLeg  -26.1958 24.1344 -3.57301
RightLeg  25.5845 16.7457 8.35889
RightFoot  -2.27111 -0.180249 2.0922
RightToes  -5.8209e-011 0 -3.6325e-017
Spine  33.7268 -4.36758 -28.9497
Spine1  2.6077 -13.199 -1.39946
HEad  4.67939 44.6264 -5.11633
LeftShoulder1  5.76599 -16.7303 -22.1344
LeftArm  60.0525 -69.5013 -126.659
LeftForeArm  77.6324 5.65175 -7.47841
LeftHand  -0.246645 0.021 5.37786
RightShoulder  7.21281 15.1213 32.7618
RightArm  -32.0195 41.4714 49.3735
RightForeArm  27.0218 53.7453 13.1261
RightHand  -0.24729 -0.0210522 -5.37781
LeftUpLeg  -7.40463 34.6169 15.5298
LeftLeg  27.5533 8.45403 5.11184
LeftFoot  -11.406 0.0591368 -15.6336
LeftToes  -7.45818e-011 -3.37383e-011 1.08613e-011
534
root  -0.402578 38.5779 14.3868 -175.704 39.3635 -177.324
RightUpLeg  -26.1189 24.6887 -3.33897
RightLeg  25.7551 17.2675 8.67779
RightFoot  -2.23818 -0.177049 2.04565
RightToes  -5.8209e-011 0 -3.6325e-017
Spine  33.4471 -4.50552 -29.6578
Spine1  2.277 -13.5209 -1.10962
HEad  4.27706 46.1946 -5.67415
LeftShoulder1  5.6004 -16.6544 -21.3764
LeftArm  66.4042 -69.4589 -132.661
LeftForeArm  76.5577 5.77778 -7.98403
LeftHand  -0.246645 0.021 5.37786
RightShoulder  7.02905 14.9179 32.1926
RightArm  -33.5558 41.9794 48.2253
RightForeArm  28.8128 56.5942 14.6071
RightHand  -0.24729 -0.0210522 -5.37781
LeftUpLeg  -6.6573 35.3688 16.0497
LeftLeg  27.7805 8.65006 5.26645
LeftFoot  -11.6931 0.0206978 -15.8784
LeftToes  -7.45818e-011 -3.37383e-011 1.08613e-011
535
root  -0.413641 38.5568 14.3344 -175.736 40.5336 -177.151
RightUpLeg  -26.1021 25.2624 -3.15932
RightLeg  25.9494 17.7356 8.98175
RightFoot  -2.22799 -0.174049 1.99957
RightToes  -5.8209e-011 0 -3.6325e-017
Spine  33.2412 -4.64088 -30.2783
Spine1  1.7297 -13.8177 -0.808072
HEad  4.15584 47.6854 -6.1349
LeftShoulder1  5.45239 -16.6021 -20.6687
LeftArm  72.333 -69.1582 -138.447
LeftForeArm  75.5494 5.88357 -8.38489
LeftHand  -0.246645 0.021 5.37786
RightShoulder  6.76448 14.642 31.3108
RightArm  -35.2091 42.3682 47.1752
RightForeArm  30.9297 59.3645 16.2756
RightHand  -0.24729 -0.0210522 -5.37781
LeftUpLeg  -5.97605 35.9993 16.4891
LeftLeg  28.0016 8.93994 5.47484
LeftFoot  -11.9496 -0.0148685 -16.1286
LeftToes  -7.45818e-011 -3.37383e-011 1.08613e-011
536
root  -0.418074 38.531 14.2904 -175.651 41.6359 -176.98
RightUpLeg  -26.2365 25.9177 -3.05805
RightLeg  26.1398 18.0709 9.22117
RightFoot  -2.2456 -0.175316 2.01746
RightToes  -5.8209e-011 0 -3.6325e-017
Spine  32.9697 -4.81086 -30.9039
Spine1  1.17419 -14.1385 -0.390902
HEad  3.9383 49.2722 -6.70599
LeftShoulder1  5.25463 -16.4652 -19.8081
LeftArm  78.3261 -68.6378 -144.329
LeftForeArm  74.4374 5.99385 -8.79147
LeftHand  -0.246645 0.021 5.37786
RightShoulder  6.44097 14.2805 30.2406
RightArm  -36.8523 42.7732 46.2392
RightForeArm  33.6012 62.089 18.1908
RightHand  -0.24729 -0.0210522 -5.37781
LeftUpLeg  -5.48343 36.5991 16.8425
LeftLeg  28.2451 9.22203 5.68644
LeftFoot  -12.2085 -0.0518401 -16.369
LeftToes  -7.45818e-011 -3.37383e-011 1.08613e-011
537
root  -0.415543 38.5055 14.2466 -175.542 42.664 -176.818
RightUpLeg  -26.3954 26.6432 -2.99769
RightLeg  26.3089 18.2913 9.39712
RightFoot  -2.28209 -0.17965 2.08111
RightToes  -5.8209e-011 0 -3.6325e-017
Spine  32.6082 -5.06343 -31.5118
Spine1  0.841237 -14.4876 -0.111219
HEad  3.36666 50.9453 -7.31459
LeftShoulder1  4.95135 -16.1728 -18.5738
LeftArm  84.2435 -67.9259 -150.11
LeftForeArm  73.1022 6.11262 -9.19919
LeftHand  -0.246645 0.021 5.37786
RightShoulder  6.18144 13.9418 29.4456
RightArm  -38.4705 43.2354 45.1187
RightForeArm  36.5453 64.8184 20.5331
RightHand  -0.24729 -0.0210522 -5.37781
LeftUpLeg  -5.00309 37.2531 17.2012
LeftLeg  28.4363 9.38285 5.8202
LeftFoot  -12.4696 -0.0901878 -16.6059
LeftToes  -7.45818e-011 -3.37383e-011 1.08613e-011
538
root  -0.408596 38.4854 14.199 -175.522 43.6663 -176.696
RightUpLeg  -26.4603 27.3929 -2.93882
RightLeg  26.4674 18.4824 9.5555
RightFoot  -2.32309 -0.182654 2.12267
RightToes  -5.8209e-011 0 -3.6325e-017
Spine  32.2651 -5.312 -32.1024
Spine1  0.605341 -14.8131 0.0244517
HEad  2.77936 52.4562 -7.69813
LeftShoulder1  4.62294 -15.8369 -17.2152
LeftArm  89.1879 -67.0382 -155.119
LeftForeArm  71.8746 6.20225 -9.45525
LeftHand  -0.246645 0.021 5.37786
RightShoulder  5.99824 13.6793 28.9105
RightArm  -40.2175 43.5525 43.6526
RightForeArm  39.7888 67.5195 23.4509
RightHand  -0.24729 -0.0210522 -5.37781
LeftUpLeg  -4.3674 37.9506 17.6139
LeftLeg  28.5272 9.45505 5.88206
LeftFoot  -12.703 -0.125674 -16.8417
LeftToes  -7.45818e-011 -3.37383e-011 1.08613e-011
